GIL11_free1_RRA_states
nRows=5
nColumns=47

# SIMM Motion File Header:
name GIL11_free1_RRA_states
datacolumns 47
datarows 5
otherdata 1
range 0.36133000000000021000 0.36333000000000021000
endheader
time	pelvis_tx	pelvis_ty	pelvis_tz	pelvis_tilt	pelvis_list	pelvis_rotation	hip_flexion_r	hip_adduction_r	hip_rotation_r	knee_angle_r	ankle_angle_r	subtalar_angle_r	mtp_angle_r	hip_flexion_l	hip_adduction_l	hip_rotation_l	knee_angle_l	ankle_angle_l	subtalar_angle_l	mtp_angle_l	lumbar_extension	lumbar_bending	lumbar_rotation	pelvis_tx_u	pelvis_ty_u	pelvis_tz_u	pelvis_tilt_u	pelvis_list_u	pelvis_rotation_u	hip_flexion_r_u	hip_adduction_r_u	hip_rotation_r_u	knee_angle_r_u	ankle_angle_r_u	subtalar_angle_r_u	mtp_angle_r_u	hip_flexion_l_u	hip_adduction_l_u	hip_rotation_l_u	knee_angle_l_u	ankle_angle_l_u	subtalar_angle_l_u	mtp_angle_l_u	lumbar_extension_u	lumbar_bending_u	lumbar_rotation_u
      0.36133000000000021000	      0.84932019690963456000	      0.87767773880879352000	     -0.33167587311536134000	     -6.92521049874038400000	      0.19434430255642590000	      5.61307129606125970000	     33.00786520707285400000	     -2.76287959014674070000	      0.34178394226052744000	    -45.84035710462743700000	      1.35540708451174870000	      0.00000000000000050641	     -0.00000000000000812443	      6.11398700712010080000	      3.95943712791228860000	     14.55870376136249600000	    -11.76726702237015100000	      9.41230002496745400000	     -0.00000000000006676570	     -0.00000000000007690555	     -2.60319161339332710000	     -0.39156071267753190000	     -2.09417113772963900000	      0.99204527702707990000	     -0.07411320345379415800	     -0.03580297314611637800	     -7.12732128065803220000	    -22.87364743065718300000	     15.05174661918688500000	     57.67653204567536600000	     23.06497427824132600000	     28.18037402153214500000	    306.84157571487242000000	     45.54135445513335200000	      0.00000000000000919909	     -0.00000000000006011330	    -86.80103978272305200000	    -30.84722744187266500000	     52.81345157046072100000	     41.18061736728807900000	     40.97783371635150500000	     -0.00000000000045225982	     -0.00000000000051264081	     -4.96293446157710870000	     16.82670247634789700000	    -18.39366484910180700000
      0.36183000000000021000	      0.84981634389727922000	      0.87764044427546128000	     -0.33169380193861558000	     -6.92878436914053350000	      0.18296367230108601000	      5.62062556155254710000	     33.03653284694144100000	     -2.75143748326459690000	      0.35594465377985074000	    -45.68663253187814600000	      1.37794065474947970000	      0.00000000000000051082	     -0.00000000000000815511	      6.07062189060626520000	      3.94407916084516460000	     14.58494763346741900000	    -11.74677166844201000000	      9.43280479995793010000	     -0.00000000000006699445	     -0.00000000000007716336	     -2.60564784730212430000	     -0.38320426934262586000	     -2.10338234769423190000	      0.99254342247226179000	     -0.07506437925248447800	     -0.03591275610849754800	     -7.16781017024927090000	    -22.64876768867435400000	     15.16540822806581300000	     56.99367705766543000000	     22.70307743009365000000	     28.46150121147984200000	    308.05542791716465000000	     44.59204530956036900000	      0.00000000000000899380	     -0.00000000000006173685	    -86.65984916215427300000	    -30.58432999601753400000	     52.16120383059961800000	     40.80095808881811300000	     41.04105558911337700000	     -0.00000000000046976911	     -0.00000000000047455009	     -4.86230432761106270000	     16.59900157956326800000	    -18.45109469779776400000
      0.36233000000000021000	      0.85031274107750099000	      0.87760267497366129000	     -0.33171178630396470000	     -6.93237796255526020000	      0.17169564331891371000	      5.62823679347308930000	     33.06485854302017200000	     -2.74017689006862320000	      0.37024446792614685000	    -45.53230297323980100000	      1.39999825225530920000	      0.00000000000000051554	     -0.00000000000000818602	      6.02732674366315550000	      3.92885311249821710000	     14.61086413430601300000	    -11.72646591961805400000	      9.45334092115239950000	     -0.00000000000006723516	     -0.00000000000007740005	     -2.60805421721306500000	     -0.37496178355168969000	     -2.11262214830120070000	      0.99304603966695282000	     -0.07601228914724718300	     -0.03602513389910368100	     -7.20622087692871990000	    -22.42323752144369200000	     15.27960480621657700000	     56.30877625307382300000	     22.33891693103876000000	     28.73677470722096700000	    309.26149942498370000000	     43.63747199318500200000	      0.00000000000000922726	     -0.00000000000006020582	    -86.52114448633645300000	    -30.31954538408703900000	     51.50397167641955300000	     40.42216724786907600000	     41.10332082318568300000	     -0.00000000000048327019	     -0.00000000000051177411	     -4.76347127364348480000	     16.37086624410975200000	    -18.50801972782394600000
      0.36283000000000021000	      0.85080939068230310000	      0.87756443254188099000	     -0.33172982750291041000	     -6.93599023721804200000	      0.16054053561839357000	      5.63590525394108430000	     33.09284128342257200000	     -2.72909893171875770000	      0.38468046272467493000	    -45.37737234463156700000	      1.42157728069438800000	      0.00000000000000052042	     -0.00000000000000821599	      5.98410031973263210000	      3.91375991715283570000	     14.63645080507610200000	    -11.70634933925518500000	      9.47390795681249290000	     -0.00000000000006748532	     -0.00000000000007764130	     -2.61041162580115760000	     -0.36683346524942739000	     -2.12189028407829340000	      0.99355312839172083000	     -0.07695686447494078100	     -0.03614009396624257700	     -7.24251473444391090000	    -22.19710262964503400000	     15.39432679391666900000	     55.62183765291251800000	     21.97256458281675500000	     29.00625340568976900000	    310.45969635631252000000	     42.67782367511429000000	      0.00000000000001051743	     -0.00000000000005914080	    -86.38499829761978800000	    -30.05295100825850300000	     50.84194005671866300000	     40.04434850663077600000	     41.16460204295532300000	     -0.00000000000051948607	     -0.00000000000042921637	     -4.66648169196089140000	     16.14235831938698600000	    -18.56444467538760500000
      0.36333000000000021000	      0.85130629495120325000	      0.87752571867620333000	     -0.33174792682634191000	     -6.93962011804281610000	      0.14949863382257994000	      5.64363120642804630000	     33.12048004225066200000	     -2.71820467884094000000	      0.39924976553672831000	    -45.22184460482794300000	      1.44267526188680730000	      0.00000000000000052576	     -0.00000000000000824545	      5.94094130692985530000	      3.89880045012218050000	     14.66170530572308900000	    -11.68642139191243800000	      9.49450535396857020000	     -0.00000000000006774293	     -0.00000000000007785078	     -2.61272101385228070000	     -0.35881947697731825000	     -2.13118651058352220000	      0.99406468835313400000	     -0.07789803652544961800	     -0.03625762435023220700	     -7.27665306470058850000	    -21.97040922143772700000	     15.50956561200061000000	     54.93286936856043200000	     21.60409257117943600000	     29.26999693185979000000	    311.64992412254958000000	     41.71329233535190200000	      0.00000000000001062725	     -0.00000000000006018696	    -86.25148289398747200000	    -29.78462517010206800000	     50.17529751753173900000	     39.66760541758586800000	     41.22486769069279700000	     -0.00000000000050424322	     -0.00000000000039131558	     -4.57138191686815890000	     15.91354020950922700000	    -18.62037520332576400000
